<svg width="70" height="34" viewBox="0 0 70 34" fill="none" xmlns="http://www.w3.org/2000/svg">
<path fill-rule="evenodd" clip-rule="evenodd" d="M23.0712 1.37774L23.1118 2.75549L24.8058 2.79548C26.0656 2.82529 26.5296 2.78898 26.6156 2.65417C26.7502 2.44334 26.7765 0.552794 26.6494 0.223548C26.5772 0.036316 26.2764 0 24.7969 0H23.0306L23.0712 1.37774ZM33.6281 0.205462C32.1745 0.56198 30.7529 1.58038 30.0799 2.74729C29.3929 3.93851 29.2647 4.77915 29.2695 8.05931C29.2724 9.95424 29.3393 11.3669 29.447 11.804C30.1109 14.499 32.2479 16.109 35.1611 16.109C38.0977 16.109 40.0156 14.7732 40.9479 12.0789C41.0876 11.6752 41.1555 11.2702 41.0988 11.179C41.0263 11.0625 40.4513 11.0249 39.1661 11.0529L37.3364 11.0926L37.0714 11.5872C36.6922 12.2949 36.179 12.6196 35.3434 12.6806C34.4822 12.7436 33.8484 12.4136 33.4594 11.6994C33.2464 11.3085 33.1978 10.7906 33.1557 8.46896C33.1003 5.39878 33.1975 4.76813 33.8366 4.05707C34.224 3.62594 34.2952 3.60333 35.2664 3.60333C36.2583 3.60333 36.3004 3.61761 36.6992 4.09254C36.925 4.36159 37.1099 4.66144 37.1099 4.7588C37.1099 4.85616 37.2335 5.00157 37.3847 5.08211C37.6699 5.23388 40.6234 5.2887 40.9894 5.14909C41.4764 4.96327 40.4798 2.66661 39.4814 1.67393C38.0782 0.278659 35.731 -0.310168 33.6281 0.205462ZM9.36066 0.225527C9.3031 0.282898 9.25592 3.84144 9.25592 8.13364C9.25592 15.1193 9.27951 15.9465 9.48074 16.0232C9.9102 16.1872 12.8855 16.1175 13.0645 15.9394C13.185 15.8196 13.2351 14.9945 13.2351 13.1284C13.2351 10.8501 13.2659 10.4752 13.4599 10.4012C13.5835 10.354 14.3845 10.3154 15.2398 10.3154C17.5028 10.3154 18.8168 9.781 19.9068 8.4171C20.9529 7.10832 21.2493 4.98164 20.6171 3.32171C20.1815 2.17853 19.023 1.01981 17.8527 0.557031C17.0447 0.237677 16.8078 0.217756 13.2332 0.170842C11.1609 0.143712 9.41835 0.168298 9.36066 0.225527ZM43.4576 0.235558C43.4054 0.287276 43.3628 3.84454 43.3628 8.14042V15.951L45.0794 15.9947C46.0234 16.0187 46.8867 15.9875 46.9979 15.9253C47.1602 15.8346 47.1998 15.3347 47.1998 13.3788V10.9451L47.8389 10.253C48.1903 9.87229 48.5038 9.58755 48.5355 9.62019C48.6054 9.69212 50.6081 13.2066 51.4539 14.7417C51.789 15.3498 52.1528 15.8815 52.2626 15.9233C52.3721 15.9652 53.3564 16.0083 54.4495 16.0189C56.1341 16.0354 56.4371 16.0059 56.4371 15.8254C56.4371 15.7084 56.0965 15.0407 55.6801 14.3417C55.2637 13.6428 54.4536 12.2761 53.8799 11.3046C53.3062 10.3331 52.4638 8.91606 52.0079 8.15554C51.552 7.39503 51.1792 6.69556 51.1797 6.60116C51.1801 6.50677 51.6756 5.85365 52.281 5.1498C52.8864 4.44595 53.6375 3.56052 53.9501 3.1821C54.2628 2.80368 54.9183 2.02225 55.4069 1.44571C55.8955 0.869037 56.2595 0.339703 56.2157 0.269332C56.1296 0.130851 52.4393 0.0932616 51.9428 0.225808C51.776 0.270319 50.6972 1.47129 49.5332 2.90867C48.3739 4.33997 47.3748 5.51098 47.3127 5.51098C47.2506 5.51098 47.1998 4.34138 47.1998 2.91192C47.1998 0.672197 47.1687 0.300984 46.975 0.22708C46.669 0.11036 43.576 0.117708 43.4576 0.235558ZM56.9395 0.274559C56.894 0.347897 57.8974 2.43034 59.1693 4.90237L61.4821 9.39693L61.5531 12.647L61.6242 15.8971L63.5072 15.9365L65.3902 15.9759V12.7757V9.57568L67.7333 4.98362C69.0221 2.45804 70.0415 0.33532 69.9987 0.266503C69.9559 0.197687 69.0629 0.141307 68.0141 0.141307C65.8286 0.141307 66.0063 0.0388594 65.3167 1.69569C65.1064 2.20086 64.8213 2.86854 64.6832 3.17941C64.545 3.49029 64.2518 4.15796 64.0319 4.66314C63.8119 5.16831 63.6106 5.60919 63.5849 5.64282C63.461 5.80462 63.1481 5.20632 62.1744 2.94668C61.5933 1.59804 61.0117 0.41516 60.8819 0.317941C60.5993 0.106263 57.0684 0.0674026 56.9395 0.274559ZM0.0442182 0.522273C0.0720721 0.665841 0.688272 1.05641 1.5823 1.49715C2.40271 1.90157 3.07405 2.30387 3.07405 2.39106C3.07405 2.47824 2.40257 2.89044 1.58187 3.30701C0.75279 3.72783 0.0692312 4.16602 0.0437931 4.29319C0.0184972 4.41896 0.0673826 4.52183 0.152366 4.52183C0.237349 4.52183 1.13649 4.10851 2.15032 3.60333L3.99365 2.68484H5.35622C6.57725 2.68484 6.71382 2.65912 6.67133 2.43755C6.63097 2.22686 6.40373 2.17896 5.13325 2.11367L3.64249 2.03694L1.96088 1.15985C1.03602 0.677286 0.216032 0.282614 0.138581 0.282614C0.0611297 0.282614 0.018638 0.390434 0.0442182 0.522273ZM16.2376 3.89527C16.7795 4.17393 17.1147 4.92894 16.9901 5.58983C16.8082 6.55383 15.8225 6.99824 14.0877 6.89833L13.3061 6.8534L13.2659 5.26369L13.2257 3.67399H14.5165C15.4101 3.67399 15.9396 3.7421 16.2376 3.89527ZM23.0408 10.2254C23.0408 15.3037 23.0658 15.9469 23.2656 16.0232C23.3892 16.0704 24.1488 16.109 24.9535 16.109C26.0172 16.109 26.4607 16.0563 26.5778 15.9159C26.6935 15.7774 26.7284 14.1481 26.7019 10.1576L26.6646 4.59248L24.8527 4.55292L23.0408 4.51335V10.2254ZM1.0724 5.57047C0.172545 5.96005 0.0186391 6.34681 0.0186391 8.21744V9.89659L3.3938 9.85872C5.52377 9.83484 6.76896 9.76871 6.76896 9.67954C6.76896 9.59716 6.16242 9.52142 5.31473 9.49796C4.0667 9.46348 3.84031 9.42038 3.71881 9.19472C3.58878 8.95322 3.6 7.69644 3.73331 7.56375C3.765 7.53238 4.42894 7.17501 5.20885 6.76974C6.54343 6.07607 6.83263 5.87145 6.83788 5.61696C6.84286 5.36953 6.29672 5.55464 5.06063 6.21907L3.74354 6.9273L3.44979 6.4323C3.10872 5.85746 2.37585 5.36854 1.86609 5.37575C1.67069 5.37843 1.31356 5.46618 1.0724 5.57047ZM2.83047 6.43852C3.12592 6.77667 3.15178 6.92758 3.11469 8.10368L3.07405 9.39693H1.79504H0.516031L0.474676 8.14438C0.430053 6.78981 0.591777 6.32717 1.19931 6.07098C1.70778 5.85662 2.47263 6.02887 2.83047 6.43852ZM0.050331 13.6008L0.089695 15.6144L3.34818 15.6525C5.86015 15.6818 6.63296 15.6495 6.72121 15.5111C6.85408 15.303 6.8818 12.1427 6.75375 11.8107C6.70629 11.6878 6.58038 11.5872 6.47393 11.5872C6.3233 11.5872 6.27143 11.971 6.24045 13.3182L6.20051 15.0492H4.9215H3.64249L3.60199 13.6008C3.57002 12.4578 3.51857 12.1524 3.35827 12.1524C3.19797 12.1524 3.14652 12.4578 3.11455 13.6008L3.07405 15.0492H1.79504H0.516031L0.476097 13.3182C0.443269 11.8931 0.398647 11.5872 0.223565 11.5872C0.0427983 11.5872 0.0167926 11.8896 0.050331 13.6008ZM6.0584 17.2912C5.74575 17.4596 4.87006 17.9621 4.11232 18.4077C3.35458 18.8532 2.67528 19.2178 2.60295 19.2178C2.53047 19.2178 1.99044 18.8362 1.40295 18.3699C0.329438 17.5179 0.0186391 17.3681 0.0186391 17.7031C0.0186391 17.859 3.10432 20.4966 3.6587 20.8145C3.76698 20.8767 3.85566 21.0206 3.85566 21.1343C3.85566 21.3059 3.53946 21.3388 1.99584 21.3281C0.97292 21.3208 0.097796 21.3528 0.0511832 21.3991C-0.20405 21.6531 0.473397 21.7501 2.57751 21.7613C6.69577 21.7833 6.6979 21.7832 6.6979 21.5493C6.6979 21.3159 6.6358 21.3025 5.69758 21.3337C5.11748 21.3531 4.9576 21.2796 4.10734 20.6044C3.58735 20.1915 3.15931 19.7901 3.15604 19.7124C3.15036 19.5792 3.84543 19.144 5.7395 18.0948C6.51685 17.6642 6.96635 17.192 6.73386 17.05C6.67502 17.0141 6.37105 17.1226 6.0584 17.2912ZM23.1012 17.9932C23.0612 18.0968 23.0473 18.7168 23.0702 19.371L23.1118 20.5602L24.8058 20.6002C26.0656 20.63 26.5296 20.5937 26.6156 20.4589C26.7994 20.1709 26.7587 18.1667 26.5652 17.9743C26.3123 17.7229 23.199 17.7398 23.1012 17.9932ZM34.1736 17.9428C32.0477 18.1837 30.2849 19.654 29.5866 21.7684C29.3157 22.5884 29.2853 23.0057 29.2825 25.9299C29.2796 28.8777 29.3076 29.2647 29.5835 30.0914C30.2943 32.2216 31.8385 33.4969 34.2139 33.9154C36.1283 34.2529 38.3214 33.5592 39.5839 32.2172C40.3222 31.4324 40.9347 30.2478 41.0521 29.3782L41.1275 28.8182L39.2379 28.8578L37.348 28.8973L37.0358 29.4625C36.269 30.8509 34.2101 30.8748 33.4575 29.5041C33.2332 29.096 33.2018 28.6558 33.2018 25.9299C33.2018 23.2039 33.2332 22.7637 33.4575 22.3556C33.8073 21.7182 34.4815 21.3384 35.2624 21.3387C36.068 21.3389 36.6237 21.6716 37.0309 22.3972L37.348 22.9624L39.2379 23.002L41.1275 23.0415L41.0508 22.4725C40.932 21.5919 40.1857 20.1537 39.5086 19.5002C38.2068 18.244 36.3355 17.6977 34.1736 17.9428ZM9.35071 18.0403C9.29855 18.092 9.25592 21.6461 9.25592 25.9383C9.25592 32.924 9.27951 33.7512 9.48074 33.8279C9.9102 33.9919 12.8855 33.9222 13.0645 33.7442C13.185 33.6243 13.2351 32.7958 13.2351 30.918V28.2614L14.6917 28.2597C16.8785 28.2572 18.4298 27.7592 19.4688 26.7261C21.7928 24.4153 21.3339 20.3446 18.5679 18.7328C17.4097 18.0579 16.5998 17.946 12.8737 17.946C10.9881 17.946 9.40272 17.9884 9.35071 18.0403ZM43.4576 18.0403C43.4054 18.092 43.3628 21.6548 43.3628 25.9576V33.7806L45.2458 33.7412L47.1288 33.7018L47.1998 31.2289C47.2706 28.7638 47.2722 28.7543 47.6837 28.2193C48.4746 27.1913 48.4199 27.1486 50.0553 30.0655C50.8687 31.5164 51.5594 32.7693 51.5901 32.8494C51.6208 32.9297 51.769 33.1702 51.9195 33.3838L52.1931 33.7724H54.3151C55.8195 33.7724 56.4371 33.7251 56.4371 33.6099C56.4371 33.4396 56.1071 32.858 54.1646 29.6039C52.1052 26.154 51.179 24.554 51.179 24.4467C51.179 24.3139 52.1943 23.0612 54.4897 20.3619C55.4901 19.1857 56.2697 18.1609 56.2222 18.0846C56.1721 18.0038 55.2371 17.946 53.9818 17.946H51.8276L51.4912 18.3346C51.3061 18.5483 50.3158 19.7566 49.2906 21.0194C48.2652 22.2824 47.3755 23.3157 47.3131 23.3157C47.2508 23.3157 47.1998 22.1838 47.1998 20.8004C47.1998 19.0325 47.1491 18.2347 47.0293 18.1156C46.8465 17.9339 43.6327 17.8662 43.4576 18.0403ZM16.1285 21.6733C16.7259 21.9214 17.1359 22.7212 17.0094 23.3916C16.8293 24.346 15.6977 24.8308 13.9456 24.7043L13.3061 24.6581L13.2351 23.2021C13.1943 22.3674 13.2216 21.689 13.299 21.6124C13.5059 21.4076 15.5974 21.4526 16.1285 21.6733ZM23.0408 28.0344C23.0408 33.1088 23.0658 33.7516 23.2656 33.8279C23.6914 33.9905 26.3862 33.9221 26.5652 33.7442C26.6918 33.6182 26.7357 32.1861 26.7357 28.1741C26.7357 25.2038 26.6969 22.673 26.6494 22.5501C26.5772 22.3628 26.2768 22.3265 24.802 22.3265H23.0408V28.0344ZM5.06362 23.5983C4.282 23.8953 2.82706 24.4388 1.83057 24.8062C-0.578089 25.6939 -0.574678 25.8716 1.86609 26.6569C2.21782 26.7701 2.6335 26.9168 2.78982 26.983C2.94615 27.0493 3.45775 27.243 3.92672 27.4136C4.39569 27.5841 4.90729 27.7752 5.06362 27.8381C5.63434 28.0678 6.56332 28.4027 6.62969 28.4027C6.66721 28.4027 6.6979 28.284 6.6979 28.1391C6.6979 27.9508 6.48417 27.7947 5.95181 27.5939L5.20573 27.3123L5.16409 25.9853C5.11648 24.4714 5.19223 24.0222 5.49464 24.0222C5.61146 24.0222 5.81809 23.9633 5.95381 23.8912C6.08952 23.8192 6.31235 23.7258 6.44921 23.6836C6.68497 23.6112 6.81671 23.0191 6.59132 23.0456C6.53277 23.0526 5.84523 23.3011 5.06362 23.5983ZM4.67835 25.7548C4.72766 27.2392 4.80028 27.2114 2.77589 26.4842C2.00195 26.2063 1.27803 25.9499 1.16733 25.9145C1.01157 25.8646 1.00419 25.8119 1.13507 25.6817C1.35591 25.4621 4.14742 24.4504 4.42411 24.4897C4.59138 24.5134 4.64609 24.7861 4.67835 25.7548ZM4.21336 29.4722C3.98015 29.593 3.67163 29.8177 3.52767 29.9713C3.26803 30.2484 3.2622 30.2471 2.77433 29.8212C2.20205 29.3217 1.50655 29.2533 0.859942 29.633C0.172546 30.0368 0.00357566 30.5965 0.0493357 32.3202L0.089695 33.8431L3.28721 33.8645C5.29185 33.878 6.55096 33.832 6.66237 33.7412C6.78189 33.6438 6.84001 33.1549 6.84001 32.2453C6.84001 31.1732 6.78004 30.7709 6.54954 30.2975C6.09307 29.3598 5.10397 29.0104 4.21336 29.4722ZM5.95693 30.3194C6.25238 30.6576 6.27825 30.8085 6.24115 31.9846L6.20051 33.2778H4.9215H3.64249L3.60114 32.0253C3.55652 30.6707 3.71824 30.2081 4.32577 29.9519C4.83425 29.7375 5.59909 29.9098 5.95693 30.3194ZM2.6595 30.3093C2.99318 30.641 3.01137 30.737 2.97286 31.9696L2.93193 33.2778H1.72398H0.516031L0.47496 32.0362C0.434743 30.8245 0.443981 30.7842 0.854826 30.3758C1.40594 29.8277 2.14776 29.8004 2.6595 30.3093Z" fill="black"/>
</svg>
