<svg width="24" height="24" viewBox="0 0 24 24" fill="none" xmlns="http://www.w3.org/2000/svg">
<path d="M24.001 11.988C24.001 5.37 18.625 0 12.001 0C5.37698 0 0.000976562 5.37 0.000976562 11.988C0.000976562 15.633 1.65698 18.918 4.24898 21.123C4.27298 21.147 4.29698 21.147 4.29698 21.171C4.51298 21.339 4.72898 21.507 4.96898 21.675C5.08898 21.747 5.18498 21.8415 5.30498 21.9375C7.28808 23.282 9.62904 24.0005 12.025 24C14.4209 24.0005 16.7619 23.282 18.745 21.9375C18.865 21.8655 18.961 21.771 19.081 21.6975C19.297 21.531 19.537 21.363 19.753 21.195C19.777 21.171 19.801 21.171 19.801 21.147C22.345 18.9165 24.001 15.633 24.001 11.988ZM12.001 22.4895C9.74498 22.4895 7.68098 21.7695 5.97698 20.571C6.00098 20.379 6.04898 20.1885 6.09698 19.9965C6.23999 19.4762 6.44973 18.9765 6.72098 18.51C6.98498 18.054 7.29698 17.646 7.68098 17.286C8.04098 16.926 8.47298 16.5915 8.90498 16.3275C9.36098 16.0635 9.84098 15.8715 10.369 15.7275C10.9011 15.5841 11.4499 15.5119 12.001 15.513C13.637 15.5014 15.2128 16.129 16.393 17.262C16.945 17.814 17.377 18.462 17.689 19.2045C17.857 19.6365 17.977 20.0925 18.049 20.571C16.2777 21.8162 14.1661 22.4861 12.001 22.4895ZM8.32898 11.3895C8.11751 10.9053 8.01117 10.3818 8.01698 9.8535C8.01698 9.327 8.11298 8.799 8.32898 8.319C8.54498 7.839 8.83298 7.4085 9.19298 7.0485C9.55298 6.6885 9.98498 6.402 10.465 6.186C10.945 5.97 11.473 5.874 12.001 5.874C12.553 5.874 13.057 5.97 13.537 6.186C14.017 6.402 14.449 6.69 14.809 7.0485C15.169 7.4085 15.457 7.8405 15.673 8.319C15.889 8.799 15.985 9.327 15.985 9.8535C15.985 10.4055 15.889 10.9095 15.673 11.388C15.4645 11.8609 15.1718 12.2919 14.809 12.66C14.4408 13.0222 14.0098 13.3145 13.537 13.5225C12.5452 13.9301 11.4327 13.9301 10.441 13.5225C9.9682 13.3145 9.53718 13.0222 9.16898 12.66C8.8057 12.2973 8.51992 11.8645 8.32898 11.388V11.3895ZM19.465 19.3485C19.465 19.3005 19.441 19.2765 19.441 19.2285C19.2049 18.4776 18.857 17.7666 18.409 17.1195C17.9605 16.4676 17.4094 15.8926 16.777 15.417C16.294 15.0537 15.7705 14.7476 15.217 14.505C15.4688 14.3389 15.7021 14.1463 15.913 13.9305C16.2708 13.5773 16.585 13.1824 16.849 12.7545C17.3805 11.8812 17.655 10.8757 17.641 9.8535C17.6484 9.09677 17.5014 8.34648 17.209 7.6485C16.9203 6.97596 16.5047 6.36533 15.985 5.85C15.466 5.34005 14.8553 4.93289 14.185 4.65C13.4858 4.35809 12.7346 4.21161 11.977 4.2195C11.2193 4.21209 10.468 4.35908 9.76898 4.6515C9.09286 4.93378 8.48064 5.34958 7.96898 5.874C7.45904 6.39238 7.05187 7.00263 6.76898 7.6725C6.47655 8.37048 6.32956 9.12077 6.33698 9.8775C6.33698 10.4055 6.40898 10.9095 6.55298 11.388C6.69698 11.892 6.88898 12.348 7.15298 12.7785C7.39298 13.2105 7.72898 13.5945 8.08898 13.9545C8.30498 14.1705 8.54498 14.361 8.80898 14.529C8.25373 14.7781 7.73006 15.0923 7.24898 15.465C6.62498 15.945 6.07298 16.5195 5.61698 17.1435C5.16437 17.7879 4.8161 18.4997 4.58498 19.2525C4.56098 19.3005 4.56098 19.3485 4.56098 19.3725C2.66498 17.454 1.48898 14.865 1.48898 11.988C1.48898 6.21 6.21698 1.4865 12.001 1.4865C17.785 1.4865 22.513 6.21 22.513 11.988C22.5098 14.7479 21.414 17.3943 19.465 19.3485Z" fill="black"/>
</svg>
